<svg width="48" height="48" viewBox="0 0 48 48" fill="none" xmlns="http://www.w3.org/2000/svg">
<g clip-path="url(#clip0_17591_3304)">
<path d="M24.0009 4.89001L7.46094 14.44V33.54L24.0009 43.09L40.5409 33.54V14.44L24.0009 4.89001ZM25.5009 9.22002L36.0409 15.3L25.5009 21.38V9.22002ZM22.5009 21.39L11.9609 15.31L22.5009 9.23001V21.4V21.39ZM21.0009 23.99L10.4609 30.07V17.9L21.0009 23.98V23.99ZM22.5009 26.59V38.76L11.9609 32.68L22.5009 26.6V26.59ZM25.5009 26.59L36.0409 32.67L25.5009 38.75V26.58V26.59ZM27.0009 23.99L37.5409 17.91V30.08L27.0009 24V23.99Z" fill="#1A73E8"/>
</g>
<defs>
<clipPath id="clip0_17591_3304">
<rect width="48" height="48" fill="white"/>
</clipPath>
</defs>
</svg>
