<svg width="48" height="48" viewBox="0 0 48 48" fill="none" xmlns="http://www.w3.org/2000/svg">
<g clip-path="url(#clip0_17591_3291)">
<path d="M38.76 31.64C38.76 27.71 35.56 24.51 31.63 24.51C27.7 24.51 24.5 27.71 24.5 31.64C24.5 35.57 27.7 38.77 31.63 38.77C33.05 38.77 34.38 38.35 35.5 37.62L40.98 43.1L43.1 40.98L37.62 35.5C38.34 34.39 38.77 33.06 38.77 31.63L38.76 31.64ZM31.63 35.77C29.35 35.77 27.5 33.92 27.5 31.64C27.5 29.36 29.35 27.51 31.63 27.51C33.91 27.51 35.76 29.36 35.76 31.64C35.76 33.92 33.91 35.77 31.63 35.77Z" fill="#1A73E8"/>
<path d="M11.9297 14.02L14.0497 11.9L11.6097 9.46002L14.0497 7.02002L11.9297 4.90002L9.48969 7.34002L7.04969 4.90002L4.92969 7.02002L7.36969 9.46002L4.92969 11.9L7.04969 14.02L9.48969 11.58L11.9297 14.02Z" fill="#1A73E8"/>
<path d="M29.6283 15.15C27.1383 15.15 24.8183 16.39 23.4383 18.46L19.1283 24.92C18.2983 26.16 16.9183 26.9 15.4283 26.9C12.9783 26.9 10.9883 24.91 10.9883 22.46V17.67C10.9883 16.8416 10.3167 16.17 9.48828 16.17C8.65985 16.17 7.98828 16.8416 7.98828 17.67V22.46C7.98828 26.56 11.3283 29.9 15.4283 29.9C17.9183 29.9 20.2383 28.66 21.6183 26.59L25.9283 20.13C26.7583 18.89 28.1383 18.15 29.6283 18.15H43.0983V15.15H29.6283Z" fill="#1A73E8"/>
</g>
<defs>
<clipPath id="clip0_17591_3291">
<rect width="48" height="48" fill="white"/>
</clipPath>
</defs>
</svg>
