<svg width="48" height="48" viewBox="0 0 48 48" fill="none" xmlns="http://www.w3.org/2000/svg">
<g clip-path="url(#clip0_17591_3275)">
<path d="M19.3584 10.76L14.5184 33.48L10.9084 21.54H4.89844V24.54H8.67844L12.5284 37.23L16.7884 37.24L21.7884 13.76H43.0984V10.76H19.3584Z" fill="#1A73E8"/>
<path d="M38.6767 18.25C38.0767 17.68 37.1267 17.71 36.5567 18.31L31.8367 23.31L27.1167 18.31C26.5467 17.71 25.5967 17.68 24.9967 18.25C24.3967 18.82 24.3667 19.77 24.9367 20.37L29.7767 25.49L24.9367 30.61C24.3667 31.21 24.3967 32.16 24.9967 32.73C25.2867 33 25.6567 33.14 26.0267 33.14C26.4267 33.14 26.8267 32.98 27.1167 32.67L31.8367 27.67L36.5567 32.67C36.8467 32.98 37.2467 33.14 37.6467 33.14C38.0167 33.14 38.3867 33 38.6767 32.73C39.2767 32.16 39.3067 31.21 38.7367 30.61L33.8967 25.49L38.7367 20.37C39.3067 19.77 39.2767 18.82 38.6767 18.25Z" fill="#1A73E8"/>
</g>
<defs>
<clipPath id="clip0_17591_3275">
<rect width="48" height="48" fill="white"/>
</clipPath>
</defs>
</svg>
