<svg width="48" height="48" viewBox="0 0 48 48" fill="none" xmlns="http://www.w3.org/2000/svg">
<g clip-path="url(#clip0_17591_3193)">
<path d="M43.1009 43.1H40.1009C40.1009 34.43 40.1009 24.6 32.2109 16.27L34.3909 14.21C43.1009 23.4 43.1009 34.32 43.1009 43.1Z" fill="#1A73E8"/>
<path d="M13.6006 33.79C4.89063 24.6 4.89062 13.67 4.89062 4.90002H7.89062C7.89062 13.57 7.89062 23.4 15.7806 31.73L13.6006 33.79Z" fill="#1A73E8"/>
<path d="M23.9984 31.35C19.9484 31.35 16.6484 28.05 16.6484 24C16.6484 19.95 19.9484 16.65 23.9984 16.65C28.0484 16.65 31.3484 19.95 31.3484 24C31.3484 28.05 28.0484 31.35 23.9984 31.35ZM23.9984 19.65C21.5984 19.65 19.6484 21.6 19.6484 24C19.6484 26.4 21.5984 28.35 23.9984 28.35C26.3984 28.35 28.3484 26.4 28.3484 24C28.3484 21.6 26.3984 19.65 23.9984 19.65Z" fill="#1A73E8"/>
<path d="M23.9987 38.28C16.1287 38.28 9.71875 31.87 9.71875 24C9.71875 16.13 16.1287 9.71997 23.9987 9.71997C31.8687 9.71997 38.2787 16.13 38.2787 24C38.2787 31.87 31.8687 38.28 23.9987 38.28ZM23.9987 12.72C17.7787 12.72 12.7188 17.78 12.7188 24C12.7188 30.22 17.7787 35.28 23.9987 35.28C30.2188 35.28 35.2787 30.22 35.2787 24C35.2787 17.78 30.2188 12.72 23.9987 12.72Z" fill="#1A73E8"/>
</g>
<defs>
<clipPath id="clip0_17591_3193">
<rect width="48" height="48" fill="white"/>
</clipPath>
</defs>
</svg>
