<svg width="48" height="48" viewBox="0 0 48 48" fill="none" xmlns="http://www.w3.org/2000/svg">
<g clip-path="url(#clip0_17591_3297)">
<path d="M24 43.16V40.16C32.91 40.16 40.16 32.91 40.16 24C40.16 15.09 32.91 7.83997 24 7.83997V4.83997C34.56 4.83997 43.16 13.43 43.16 24C43.16 34.57 34.57 43.16 24 43.16Z" fill="#1A73E8"/>
<path d="M11.8984 13.2899L9.64844 11.2999C12.1984 8.41994 15.5084 6.38994 19.2084 5.43994L19.9584 8.34994C16.8384 9.14994 14.0484 10.8599 11.8984 13.2899Z" fill="#1A73E8"/>
<path d="M6.56984 31.97C5.41984 29.46 4.83984 26.78 4.83984 24C4.83984 21.22 5.41984 18.54 6.56984 16.03L9.29984 17.28C8.32984 19.39 7.83984 21.66 7.83984 24C7.83984 26.34 8.32984 28.61 9.29984 30.72L6.56984 31.97Z" fill="#1A73E8"/>
<path d="M19.2184 42.56C15.5084 41.61 12.2084 39.58 9.64844 36.7L11.8984 34.71C14.0484 37.14 16.8384 38.85 19.9684 39.65L19.2184 42.56Z" fill="#1A73E8"/>
<path d="M22.7914 30.7L20.5214 30.65L16.1914 24.7L18.6114 22.94L21.7514 27.24L29.4414 17.86L31.7614 19.77L22.7914 30.7Z" fill="#1A73E8"/>
</g>
<defs>
<clipPath id="clip0_17591_3297">
<rect width="48" height="48" fill="white"/>
</clipPath>
</defs>
</svg>
